# xmcd CD database file
#
# Track frame offsets:
#	150
#	22713
#	45093
#	70245
#	91692
#	107347
#	125119
#	144064
#	175768
#	200128
#
# Disc length: 3011 seconds
#
# Revision: 0
# Processed by: cddbd v1.5.2PL0 Copyright (c) Steve Scherf et al.
# Submitted via: CDex 1.82
#
DISCID=730bc10a
DTITLE=Myrczek and Tomaszewski - Love Revisited
DYEAR=2014
DGENRE=Jazz
TTITLE0=My one and only love
TTITLE1=Very early
TTITLE2=Little sunflower
TTITLE3=Bewitched
TTITLE4=Unforgettable
TTITLE5=My Romance
TTITLE6=Then I'll Be Tried of You
TTITLE7=Freedom Jazz Dance
TTITLE8=Nearness of You
TTITLE9=All Blues
EXTD=YEAR: 2014
EXTT0=
EXTT1=
EXTT2=
EXTT3=
EXTT4=
EXTT5=
EXTT6=
EXTT7=
EXTT8=
EXTT9=
PLAYORDER=
